<svg width="100" height="106" viewBox="0 0 100 106" fill="none" xmlns="http://www.w3.org/2000/svg">
<g id="cat_back">
<circle id="Ellipse 2" cx="50" cy="55" r="50" fill="#68B738"/>
<g id="Group">
<path id="Vector" d="M69.3601 0.0377121C62.0246 0.530472 56.2136 3.79092 51.5255 10.0572C50.837 10.9771 50.1075 12.0858 49.1076 13.7201L48.8945 14.0651L48.37 14.024C47.8782 13.9829 47.8208 13.9994 47.4684 14.2539C45.9767 15.3052 43.7638 15.8144 41.6082 15.5926C39.9772 15.4366 38.4199 14.952 37.6823 14.3853C37.4282 14.1882 37.3053 14.1472 37.2397 14.2129C37.1905 14.2622 37.1495 14.3361 37.1495 14.3771C37.1495 14.4182 37.42 14.7713 37.7479 15.1656C38.8543 16.4796 39.9526 18.0318 40.7886 19.4198C41.5836 20.7584 42.6491 23.3126 42.8458 24.3885C42.9032 24.6759 42.8868 24.7005 42.7147 24.7005C42.6081 24.7005 42.1983 24.7662 41.8049 24.8484L41.0919 24.9962L40.8788 24.4788C40.2149 22.9266 38.6576 21.1855 36.5348 19.6333C35.7972 19.0995 33.4531 17.5555 33.3794 17.5555C33.3384 17.5555 33.2892 17.6212 33.2564 17.6951C33.199 17.8675 33.0925 17.7854 34.7809 18.8941C37.002 20.356 38.6248 21.7522 39.5674 23.0169C39.928 23.4933 40.6739 24.8484 40.6739 25.0126C40.6739 25.0619 40.5017 25.1522 40.2968 25.2262C39.9362 25.3493 39.8624 25.3411 39.0838 25.1851C38.3708 25.0373 38.0675 25.0208 36.9037 25.0537C36.1578 25.0783 35.4448 25.1358 35.3054 25.1769C35.0595 25.2508 35.0595 25.2508 35.4284 25.3083C35.871 25.374 37.7643 25.8421 38.0511 25.9489C38.2396 26.0228 38.2232 26.0392 37.7233 26.3184C35.2317 27.6982 32.9859 29.7678 31.5516 32.0263C31.0845 32.7572 30.4616 34.0466 30.2566 34.7201C30.1501 35.0568 30.0599 35.3442 30.0517 35.3607C30.0272 35.4099 28.2568 35.1225 28.2076 35.065C26.8471 33.3568 25.2325 32.2727 23.5441 31.9277C21.3557 31.476 19.3968 32.0591 17.8478 33.6114C17.0856 34.3833 16.6184 35.1553 16.2578 36.2394C15.6021 38.2187 15.7414 40.239 16.6594 42.0705C17.1757 43.0971 17.8806 43.9512 18.7002 44.5589L19.3313 45.0271L19.4296 45.6594C20.0034 49.2648 23.3719 53.5026 28.2814 56.8041C33.0023 59.9906 38.674 62.0356 44.2228 62.5694C45.067 62.6516 45.2637 62.6926 45.2227 62.7912C45.1981 62.8487 45.1817 63.0047 45.1817 63.1279V63.3579L44.7145 63.2018C44.0506 62.9719 43.2966 62.9308 42.477 63.0786C42.0918 63.1443 41.682 63.2347 41.5672 63.2839C41.3296 63.3743 40.6903 64.2777 40.2067 65.1893C39.8215 65.912 39.8461 65.8956 37.4774 67.0782C35.6906 67.9734 34.2481 68.6058 32.7237 69.1561C31.0189 69.772 31.0845 69.7556 30.4943 69.542C29.6911 69.2546 28.0109 68.3758 27.093 67.7599C26.0767 67.0864 24.6096 65.9284 24.6096 65.8053C24.6096 65.7642 24.6833 65.6328 24.7735 65.5178C24.9784 65.255 24.9784 65.0168 24.7817 64.6226C24.4866 64.0559 23.9293 63.6699 22.9867 63.3743C22.9212 63.3497 23.0687 63.21 23.3146 63.054C24.6751 62.167 25.7406 61.1733 26.0767 60.4752C26.2897 60.0399 26.3143 59.3993 26.134 59.0462C25.9373 58.6602 25.3226 58.0935 24.6505 57.6747C23.5441 56.9766 21.5688 56.2539 20.2001 56.0321C19.8476 55.9746 19.823 55.95 19.2493 55.0548C16.3643 50.6117 14.848 47.3348 14.2333 44.2468C14.0038 43.0642 13.9055 42.7932 13.7006 42.6864C12.7498 42.1772 10.7254 44.0005 10.5451 45.5198C10.4795 46.0783 10.7828 47.844 11.127 48.887C11.4139 49.774 11.9384 50.8745 12.7662 52.3364C13.4711 53.5847 13.7989 54.2499 13.7252 54.291C13.6924 54.3074 13.5612 54.3485 13.4219 54.3813C12.7416 54.5456 12.3236 55.0548 11.8565 56.3196L11.5942 57.0176L10.8647 57.0669C10.0533 57.1162 9.56975 57.2969 9.10258 57.7075C8.68458 58.0771 8.38132 58.5781 7.8076 59.8839C6.86505 62.0192 6.7585 63.054 7.43058 63.4975C7.66007 63.6371 8.26658 63.6699 8.66818 63.555L8.91407 63.4893V64.1134C8.91407 64.9511 9.11897 65.3536 10.0205 66.2898C11.4385 67.7681 13.258 68.8932 14.6841 69.1807C15.9053 69.4189 17.2085 69.1725 18.4051 68.4662L18.9625 68.1377L19.3723 68.5072C19.8722 68.9589 20.4378 69.1807 21.4295 69.3039L22.1835 69.4024L22.4048 69.1314L22.6343 68.8604L23.3392 69.5256C25.8554 71.9155 28.601 73.6731 30.3058 73.9851C30.7812 74.0755 30.9533 74.0673 32.0434 73.8619C32.7073 73.7305 33.6908 73.5252 34.2154 73.3938C35.035 73.1885 35.4939 73.0489 36.6988 72.63C36.8217 72.5808 36.8135 72.6054 36.6578 72.7204C35.1087 73.8537 34.0924 75.0282 33.322 76.5639C31.8795 79.4302 31.7074 83.0356 32.8138 86.9777C33.0843 87.955 33.8137 89.885 34.2072 90.6652C34.3383 90.928 34.4448 91.158 34.4448 91.1744C34.4448 91.199 34.1826 91.1005 33.8547 90.9691C33.0269 90.6241 31.4205 90.1232 30.2321 89.8275C27.4536 89.1458 25.0931 89.1048 23.0441 89.6961C20.7246 90.3695 18.8477 91.8478 17.897 93.7532C17.3806 94.7798 17.5036 96.5537 18.1838 97.9499C18.5445 98.6808 19.4624 99.6828 20.2738 100.225C21.0361 100.734 22.1671 101.251 23.3801 101.654C27.1749 102.91 30.2075 103.222 33.5843 102.73C39.092 101.908 42.9196 100.791 43.9277 99.7074L44.2801 99.3296L44.4441 99.5432C44.7145 99.8881 46.3865 100.956 47.5995 101.555C48.6404 102.073 49.8863 102.598 52.3123 103.526C55.3612 104.701 57.1398 105.054 59.9756 105.054C64.2704 105.062 67.1472 104.233 68.6389 102.565C69.7781 101.301 70.2453 99.2229 69.729 97.7117C68.9503 95.4286 66.639 93.3097 63.9917 92.4638C62.9098 92.1106 62.1722 91.9792 60.7952 91.8643L59.574 91.7657L60.3035 91.6261C68.3602 90.0821 75.8268 86.8955 81.9001 82.4114C83.9328 80.9085 85.9162 79.0031 87.1128 77.4098C87.8505 76.4161 87.916 76.3586 88.2603 76.3586C88.6701 76.3586 89.8421 76.1369 90.424 75.9398C91.1945 75.6934 91.8747 75.3484 92.4239 74.9296C93.5549 74.0755 93.85 73.2706 93.2599 72.6711L93.0632 72.474L93.4812 72.088C94.4729 71.1764 94.6286 69.9363 93.8336 69.3449C93.6943 69.2382 93.2681 69.0493 92.8829 68.9261C92.4977 68.8029 91.9567 68.5647 91.6698 68.4005C91.1863 68.1212 91.1617 68.0884 91.2027 67.8584C91.7108 65.1236 91.7272 61.0172 91.2437 57.264C90.9486 55.0055 90.2191 51.5069 89.4897 48.8049C88.2521 44.2551 86.8506 40.1733 84.4409 34.1452C82.3263 28.8562 81.7116 27.0247 81.2936 24.7416C80.2609 19.2144 82.187 15.5598 87.4735 13.022C90.1946 11.7162 94.3254 10.5746 98.7676 9.9012C99.9151 9.72873 100.022 9.70409 99.9971 9.55627C99.9561 9.28524 93.3419 6.00015 90.0142 4.59577C83.5393 1.86093 78.1135 0.40728 73.1057 0.0623474C72.0976 -0.0115662 70.1961 -0.019783 69.3601 0.0377121ZM44.1982 96.6769C44.1982 96.7015 44.1654 96.7426 44.1162 96.7673C44.0752 96.7919 44.0343 96.7755 44.0343 96.7344C44.0343 96.6851 44.0752 96.6441 44.1162 96.6441C44.1654 96.6441 44.1982 96.6605 44.1982 96.6769Z" fill="black"/>
</g>
</g>
</svg>
