<svg width="98" height="106" viewBox="0 0 98 106" fill="none" xmlns="http://www.w3.org/2000/svg">
<path id="Vector" d="M68.2703 0.0414124C65.5471 0.30648 64.3646 0.588112 62.6491 1.39159C61.5082 1.92172 60.7005 2.4353 59.0599 3.66951C57.5026 4.84574 56.928 5.16879 56.4867 5.08595C56.0786 5.01141 55.987 4.85402 56.0953 4.46471C56.2701 3.90144 56.8614 3.10624 57.894 2.07082C58.452 1.51584 58.8767 1.06026 58.8434 1.06026C58.6102 1.06026 57.0446 1.63181 56.5366 1.89687C54.4547 3.00684 53.2139 4.63866 51.3235 8.78032C50.8239 9.87371 50.3825 10.5032 50.1077 10.5032C49.3749 10.5032 49.6497 8.4407 50.7489 5.74033C51.0487 5.01141 51.3069 4.35702 51.3319 4.29075C51.3568 4.22448 51.1653 4.39015 50.9072 4.66351C48.5588 7.14021 47.4345 9.66663 46.3186 14.9679C45.9605 16.6826 45.7274 17.4861 45.5941 17.4446C45.5358 17.4281 45.4276 17.279 45.3526 17.1216C45.0695 16.5583 44.9446 15.7217 44.8946 13.9325L44.8446 12.1765L44.4449 12.9965C43.9619 13.9739 43.6121 14.9348 43.4039 15.846C43.2707 16.4258 43.2541 16.9394 43.2457 19.9462C43.2374 23.0028 43.2124 23.4998 43.0625 24.4606C42.8293 25.9019 42.4796 27.426 42.2631 27.981C42.1132 28.3538 42.0382 28.4449 41.805 28.5112C41.3637 28.6354 41.1721 28.4863 40.7974 27.716C40.406 26.9291 40.0313 25.5126 39.8314 24.0879C39.7564 23.566 39.6898 23.0939 39.6732 23.0525C39.6648 23.0028 39.5483 23.508 39.415 24.1707C39.1985 25.2972 39.1902 25.4629 39.2318 26.8628C39.3151 29.4223 39.848 31.3026 41.6718 35.4609C42.5545 37.4654 42.8876 38.3269 42.821 38.4263C42.7461 38.5588 42.4046 38.36 41.9133 37.9044C41.2138 37.2583 40.6308 36.5294 39.7481 35.2289C39.3484 34.6325 39.0486 34.2266 39.0736 34.3178C39.0986 34.4089 39.2151 34.9307 39.3317 35.4857C40.1062 39.1552 41.9966 42.7585 44.5448 45.4091C45.3943 46.2954 45.3943 46.2872 44.295 46.2872C43.8203 46.2872 43.6038 46.2457 43.2957 46.0884C42.9126 45.8978 42.896 45.8978 42.7128 46.0469L42.5212 46.2043L42.7794 46.5522C43.8453 47.9935 46.0438 50.0726 48.3173 51.7956L48.9751 52.2926L47.4012 52.4748C41.2721 53.1872 39.1818 53.3363 37.5246 53.1789C35.5593 52.9966 35.3928 52.889 34.993 51.605C34.2935 49.3354 34.0937 48.7639 33.6773 47.8941C32.5197 45.492 31.0457 44.0424 28.8389 43.1395C28.256 42.8993 28.0894 42.7916 28.1061 42.6756C28.1061 42.5845 28.206 42.0875 28.3226 41.5657C29.0971 38.0867 28.6141 35.3698 27.0984 34.5911C26.6737 34.3675 25.6578 34.3012 25.0332 34.442C24.4503 34.5745 23.3427 35.0881 22.6515 35.552C20.6112 36.8939 18.7125 39.3954 17.7965 41.9136L17.6049 42.452L16.8554 42.5017C15.5147 42.6011 13.8492 43.0318 12.3669 43.6862C7.55348 45.7984 3.85601 50.3957 1.81574 56.7821L1.46598 57.8672L2.59854 60.2611C3.22311 61.5699 3.76441 62.6964 3.80604 62.7627C3.85601 62.8372 4.5472 62.9366 6.23771 63.1106C10.2433 63.5164 14.8735 64.1377 15.1483 64.3034C15.1899 64.3365 15.2232 64.4276 15.2232 64.5104C15.2232 65.0489 16.1226 67.2771 17.3967 69.8863C17.8548 70.814 18.2129 71.5927 18.1962 71.6092C18.1795 71.6175 16.7056 70.491 14.9234 69.0994C11.4925 66.4073 10.9928 66.0511 9.93519 65.5293C6.58748 63.8726 3.56454 64.4276 1.43267 67.1031C-0.282824 69.2568 -0.457705 71.1454 0.908027 72.5867C1.40769 73.1085 2.14885 73.6055 2.90666 73.9037C3.1898 74.028 3.44796 74.1191 3.48127 74.1191C3.50625 74.1191 4.13915 73.6884 4.88864 73.1665C6.22106 72.2471 6.25437 72.2222 6.42925 72.363C6.52918 72.4376 7.71171 73.4233 9.06078 74.5415C13.5494 78.2607 15.7729 79.9754 16.7222 80.4558C17.9797 81.0854 20.1116 81.6569 24.0922 82.4355C25.6328 82.7337 29.0804 83.3136 30.4212 83.4875L31.1707 83.5869L31.7536 84.1005C33.036 85.2353 34.2435 85.9808 34.9597 86.0968C35.4927 86.1796 35.5593 86.3701 35.959 89.0705C36.7752 94.5706 37.6745 97.0142 39.5649 98.9525L40.2394 99.6317L37.0416 99.6068L33.8355 99.582L32.1283 98.9939C30.0964 98.2815 28.7057 97.8756 27.3399 97.594C26.1324 97.3455 24.7334 97.2544 24.2421 97.3869C23.8174 97.5029 23.2011 97.9999 21.9769 99.2092C20.8444 100.327 20.5113 100.924 20.5113 101.827C20.5113 102.291 20.5529 102.498 20.7445 102.879C21.0942 103.583 21.9436 104.328 22.9929 104.842C25.2997 105.977 27.6481 106.018 29.3885 104.958C30.1464 104.502 30.6377 104.403 32.2533 104.411C33.7772 104.419 35.1013 104.552 39.1652 105.107C46.2936 106.076 49.5081 106.217 52.8225 105.72C54.7545 105.422 57.2611 105.364 60.3673 105.546C62.9989 105.695 65.0641 105.712 66.1467 105.596C67.8289 105.405 69.3695 104.875 70.5854 104.072C71.1267 103.715 72.2342 102.672 72.609 102.158C72.7089 102.017 72.8172 101.885 72.8505 101.843C72.8838 101.81 73.2002 101.918 73.5667 102.084C79.0129 104.569 84.5092 105.281 88.1733 103.98C92.587 102.407 95.0519 98.3064 95.5932 91.63C95.7182 90.1059 95.6432 86.0139 95.4683 84.2827C94.9687 79.5115 93.9943 74.4836 92.4537 68.7349C92.1123 67.4759 90.9381 63.4088 90.8382 63.152C90.7632 62.9449 90.7716 62.8952 90.9214 62.7958C91.3045 62.5307 90.9548 61.6527 90.4468 61.5947C90.2469 61.5699 90.1969 61.5036 90.0304 60.9652C89.0561 57.8672 89.1726 54.8024 90.3552 52.4665C90.4884 52.2014 90.58 51.9695 90.5634 51.9447C90.4884 51.8701 88.8895 52.5825 88.2816 52.9635C87.6404 53.3611 86.8825 54.0569 86.7993 54.3303C86.7077 54.6119 86.6244 54.4959 86.3579 53.7173C85.7916 52.0855 85.5418 50.2797 85.6167 48.4077C85.6834 46.7096 85.9998 45.2932 86.6577 43.6531C86.7826 43.3631 86.8076 43.2223 86.741 43.2223C86.5245 43.2223 85.2753 43.9098 84.7757 44.3074C84.1761 44.7879 83.5931 45.4837 83.2933 46.0966C83.1684 46.3369 83.0602 46.5357 83.0435 46.5357C82.9686 46.5357 82.4939 45.492 82.2357 44.7465C81.786 43.4626 81.6528 42.5265 81.7028 41.0852C81.7611 39.3375 82.1275 38.0784 83.0102 36.5957C83.2434 36.2146 83.4099 35.8916 83.3933 35.875C83.3766 35.8502 83.0851 35.9164 82.7437 36.0158C81.2947 36.4466 79.8707 37.4406 79.3793 38.3683C79.2128 38.6831 79.1212 38.7908 79.0796 38.7162C78.9047 38.4097 78.7464 37.2998 78.7464 36.3886C78.7381 34.5663 79.2544 33.1664 80.4619 31.7748L81.0865 31.0624L80.6951 31.0127C80.4786 30.9879 79.7957 30.9299 79.1795 30.8802C78.5632 30.8305 77.8554 30.7725 77.6139 30.7477L77.1642 30.698L77.2225 30.3998C77.3974 29.4223 78.2801 28.3455 79.2794 27.8651C80.0539 27.5006 80.7118 27.3846 81.9193 27.4095L82.8853 27.4343L82.9103 27.0367C82.9436 26.4818 82.6271 25.8605 82.0442 25.3387L81.5862 24.9328L81.861 24.8996C82.3606 24.8251 83.8763 24.9908 84.6174 25.2061C86.5494 25.7611 87.9651 26.9125 88.7979 28.6106C89.1144 29.2567 89.1643 29.3561 89.3475 29.8448L89.4475 30.0933L89.5224 29.8199C89.5724 29.6211 89.6307 29.5549 89.7223 29.588C89.8139 29.6211 89.8305 29.588 89.7889 29.4306C89.7472 29.2732 89.8139 29.1407 90.0804 28.8259C90.2719 28.6023 90.5467 28.1964 90.6966 27.9148L90.9631 27.4178L91.2962 28.1301C91.4711 28.5277 91.8375 29.2981 92.0873 29.8448C92.3455 30.3915 92.7952 31.3606 93.0866 31.9984C93.3781 32.6363 93.6446 33.1912 93.6862 33.2327C93.7195 33.2824 93.9444 33.1167 94.2025 32.8599C94.7605 32.3049 94.9604 31.7334 94.9021 30.8719L94.8604 30.3086L95.0936 30.4246C95.7182 30.7477 96.5426 31.9156 97.417 33.7131L97.9999 34.8976V34.3012C98.0083 32.1227 97.1422 30.0684 95.2019 27.6663C94.9021 27.2852 94.6689 26.9539 94.6939 26.9291C94.8021 26.8297 95.3434 27.0036 95.7265 27.2687C96.0846 27.5089 96.4094 27.8568 96.984 28.6023L97.1755 28.8508L97.1505 28.0556C97.1089 26.8628 96.8257 26.3575 95.3934 24.8334C94.7938 24.1956 94.1359 23.4749 93.9527 23.243C93.3614 22.5306 92.8951 21.4372 93.1782 21.4372C93.3698 21.4372 94.3191 22.1082 95.1019 22.7957L95.8181 23.4252L95.7765 23.069C95.6932 22.2573 95.4683 21.4704 95.1519 20.8325C94.6772 19.9048 93.9527 19.2007 92.4121 18.1819C90.8881 17.1713 90.4884 16.8234 90.2053 16.2601C89.9221 15.672 89.9721 15.5229 90.4468 15.5975C90.9631 15.6803 92.1789 16.169 93.1699 16.7074C93.6529 16.9642 94.0693 17.1796 94.1026 17.1962C94.2192 17.2459 93.9027 16.1773 93.6862 15.7714C93.3698 15.1833 92.587 14.413 91.7459 13.8746C91.3545 13.6178 90.0054 12.9137 88.7479 12.3007C86.4745 11.1908 85.7583 10.7435 85.6251 10.321C85.5501 10.0808 85.7083 10.0062 86.3745 10.0062C87.1157 10.0062 88.5481 10.3293 90.1969 10.8677C90.9131 11.0996 91.5044 11.2819 91.5044 11.257C91.5044 11.2404 91.3378 11.0002 91.138 10.7186C90.5467 9.89856 89.8971 9.23589 89.2226 8.77203C88.0151 7.9437 87.0491 7.63721 84.4842 7.28103C82.5189 6.9994 81.8443 6.80888 81.1365 6.32017C80.6535 5.99712 80.2621 5.50011 80.2621 5.22676C80.2621 4.82916 81.0865 4.39015 82.3023 4.13337C82.9519 4.00084 83.9762 3.87659 84.4925 3.87659C84.7507 3.87659 85.167 3.85174 85.4085 3.8186L85.8499 3.76891L85.242 3.48728C83.6847 2.75007 82.4522 2.50985 80.6368 2.57611C79.3877 2.62582 78.6215 2.73349 76.3481 3.19736C74.3328 3.61152 73.7582 3.61152 73.4001 3.22221C73.2669 3.0731 73.2669 3.05654 73.4084 2.92401C73.7832 2.54298 75.2405 2.02941 76.8061 1.71465C77.4307 1.5904 77.3391 1.54897 75.8817 1.30875C74.974 1.15137 74.5993 1.13481 73.4751 1.16795C71.5264 1.23421 70.5604 1.49099 68.1037 2.63409C66.4132 3.421 66.205 3.48727 65.6387 3.44585C65.1224 3.40443 64.7727 3.14766 64.7727 2.82461C64.7727 2.31933 66.0884 1.33361 67.8872 0.472145C68.4452 0.207085 68.8199 0 68.7283 0C68.6367 0.00827789 68.4285 0.0248489 68.2703 0.0414124Z" fill="black"/>
</svg>
